<mxfile host="app.diagrams.net" modified="2022-10-18T05:49:43.093Z" agent="5.0 (Windows NT 10.0; Win64; x64) AppleWebKit/537.36 (KHTML, like Gecko) Chrome/106.0.0.0 Safari/537.36" etag="QaE6fVVj5tocsX6qleTa" version="20.4.1" type="github">
  <diagram id="4QeOG2rI4LuTvgQ48RNG" name="페이지-1">
    <mxGraphModel dx="981" dy="624" grid="1" gridSize="10" guides="1" tooltips="1" connect="1" arrows="1" fold="1" page="1" pageScale="1" pageWidth="827" pageHeight="1169" math="0" shadow="0">
      <root>
        <mxCell id="0" />
        <mxCell id="1" parent="0" />
        <mxCell id="CxYH6p24iFgYfsxDQxph-15" value="" style="whiteSpace=wrap;html=1;aspect=fixed;" parent="1" vertex="1">
          <mxGeometry x="309" y="320" width="330" height="330" as="geometry" />
        </mxCell>
        <mxCell id="CxYH6p24iFgYfsxDQxph-2" value="Actor" style="shape=umlActor;verticalLabelPosition=bottom;verticalAlign=top;html=1;outlineConnect=0;" parent="1" vertex="1">
          <mxGeometry x="40" y="310" width="30" height="60" as="geometry" />
        </mxCell>
        <mxCell id="CxYH6p24iFgYfsxDQxph-4" value="Line" style="shape=cylinder3;whiteSpace=wrap;html=1;boundedLbl=1;backgroundOutline=1;size=15;" parent="1" vertex="1">
          <mxGeometry x="140" y="120" width="60" height="80" as="geometry" />
        </mxCell>
        <mxCell id="CxYH6p24iFgYfsxDQxph-5" value="Crew&lt;br&gt;QA&lt;br&gt;server" style="shape=cylinder3;whiteSpace=wrap;html=1;boundedLbl=1;backgroundOutline=1;size=15;" parent="1" vertex="1">
          <mxGeometry x="384" y="120" width="60" height="80" as="geometry" />
        </mxCell>
        <mxCell id="CxYH6p24iFgYfsxDQxph-6" value="1. 라인으로 명령&lt;br&gt;&#39;패치&#39;, &#39;패치 QA&#39;" style="endArrow=classic;html=1;rounded=0;entryX=0.5;entryY=1;entryDx=0;entryDy=0;entryPerimeter=0;" parent="1" target="CxYH6p24iFgYfsxDQxph-4" edge="1">
          <mxGeometry width="50" height="50" relative="1" as="geometry">
            <mxPoint x="80" y="320" as="sourcePoint" />
            <mxPoint x="130" y="270" as="targetPoint" />
          </mxGeometry>
        </mxCell>
        <mxCell id="CxYH6p24iFgYfsxDQxph-8" value="" style="endArrow=classic;html=1;rounded=0;exitX=0.5;exitY=1;exitDx=0;exitDy=0;exitPerimeter=0;entryX=0;entryY=0;entryDx=0;entryDy=52.5;entryPerimeter=0;" parent="1" target="CxYH6p24iFgYfsxDQxph-5" edge="1">
          <mxGeometry width="50" height="50" relative="1" as="geometry">
            <mxPoint x="200" y="170" as="sourcePoint" />
            <mxPoint x="370" y="190" as="targetPoint" />
          </mxGeometry>
        </mxCell>
        <mxCell id="CxYH6p24iFgYfsxDQxph-10" value="&lt;div style=&quot;text-align: center;&quot;&gt;&lt;span style=&quot;font-size: 11px; background-color: rgb(255, 255, 255);&quot;&gt;2. LIne -&amp;gt; TestQA&lt;/span&gt;&lt;/div&gt;&lt;div style=&quot;text-align: center;&quot;&gt;&lt;span style=&quot;font-size: 11px; background-color: rgb(255, 255, 255);&quot;&gt;HookLineMsg.php&amp;nbsp;&lt;/span&gt;&lt;/div&gt;&lt;div style=&quot;text-align: center;&quot;&gt;&lt;span style=&quot;font-size: 11px; background-color: rgb(255, 255, 255);&quot;&gt;호출하여 보낸 메세지를 큐에 넣음&lt;/span&gt;&lt;/div&gt;" style="text;whiteSpace=wrap;html=1;" parent="1" vertex="1">
          <mxGeometry x="230" y="150" width="130" height="70" as="geometry" />
        </mxCell>
        <mxCell id="CxYH6p24iFgYfsxDQxph-12" value="3. BuildMac -&amp;gt; QA&amp;nbsp;&lt;br&gt;HookLineMsg.php&lt;br&gt;라인메신저 메세지큐의 메세지를 갖고옴&lt;br&gt;&lt;br&gt;11. BuildMac -&amp;gt; QA&amp;nbsp;&lt;br&gt;SetPatchVer.php 호출하여&lt;br&gt;서버에 최신 클라버전을 기록함" style="endArrow=classic;html=1;rounded=0;entryX=0.422;entryY=0.991;entryDx=0;entryDy=0;entryPerimeter=0;" parent="1" source="CxYH6p24iFgYfsxDQxph-17" target="CxYH6p24iFgYfsxDQxph-5" edge="1">
          <mxGeometry width="50" height="50" relative="1" as="geometry">
            <mxPoint x="362" y="330" as="sourcePoint" />
            <mxPoint x="370" y="270" as="targetPoint" />
          </mxGeometry>
        </mxCell>
        <mxCell id="CxYH6p24iFgYfsxDQxph-17" value="run_bot.php" style="rounded=1;whiteSpace=wrap;html=1;" parent="1" vertex="1">
          <mxGeometry x="320" y="360" width="90" height="40" as="geometry" />
        </mxCell>
        <mxCell id="CxYH6p24iFgYfsxDQxph-19" value="unity" style="rounded=1;whiteSpace=wrap;html=1;" parent="1" vertex="1">
          <mxGeometry x="320" y="600" width="90" height="40" as="geometry" />
        </mxCell>
        <mxCell id="CxYH6p24iFgYfsxDQxph-20" value="BuildMac" style="text;html=1;resizable=0;autosize=1;align=center;verticalAlign=middle;points=[];fillColor=none;strokeColor=none;rounded=0;" parent="1" vertex="1">
          <mxGeometry x="449" y="320" width="70" height="30" as="geometry" />
        </mxCell>
        <mxCell id="CxYH6p24iFgYfsxDQxph-25" value="5. Mac-&amp;gt;QA&lt;br&gt;set_progress_patch_ver.php&lt;br&gt;진행될 패치 버전 (ex:0.8.6)&amp;nbsp; 을 임시저장함&lt;br&gt;함수호출시 파라미터가 없어&amp;nbsp;&lt;br&gt;서버에 임시저장함" style="endArrow=classic;html=1;rounded=0;entryX=1;entryY=0.5;entryDx=0;entryDy=0;entryPerimeter=0;" parent="1" target="CxYH6p24iFgYfsxDQxph-5" edge="1">
          <mxGeometry x="0.003" y="-53" width="50" height="50" relative="1" as="geometry">
            <mxPoint x="410" y="380" as="sourcePoint" />
            <mxPoint x="460" y="330" as="targetPoint" />
            <Array as="points">
              <mxPoint x="560" y="330" />
            </Array>
            <mxPoint as="offset" />
          </mxGeometry>
        </mxCell>
        <mxCell id="CxYH6p24iFgYfsxDQxph-26" value="6.Unity&amp;nbsp;&lt;br&gt;ExcelImporter.Patch_ErrorCheck_Live&amp;nbsp;&lt;br&gt;호출하여 엑셀 에러체크를 함&amp;nbsp;&lt;br&gt;&lt;br&gt;9.&amp;nbsp;BuildCommandActived_AllLive&lt;br&gt;함수를 호출하여 클라 패치를 진행" style="endArrow=classic;html=1;rounded=0;entryX=0.5;entryY=0;entryDx=0;entryDy=0;exitX=0.5;exitY=1;exitDx=0;exitDy=0;" parent="1" source="CxYH6p24iFgYfsxDQxph-17" target="CxYH6p24iFgYfsxDQxph-19" edge="1">
          <mxGeometry x="0.2" width="50" height="50" relative="1" as="geometry">
            <mxPoint x="320" y="400" as="sourcePoint" />
            <mxPoint x="370" y="350" as="targetPoint" />
            <mxPoint as="offset" />
          </mxGeometry>
        </mxCell>
        <mxCell id="CxYH6p24iFgYfsxDQxph-28" value="svn&lt;br&gt;git" style="shape=cylinder3;whiteSpace=wrap;html=1;boundedLbl=1;backgroundOutline=1;size=15;" parent="1" vertex="1">
          <mxGeometry x="90" y="420" width="60" height="80" as="geometry" />
        </mxCell>
        <mxCell id="CxYH6p24iFgYfsxDQxph-29" value="4. svn update&lt;br&gt;최신 기획데이터&lt;br&gt;클라 버전 받음" style="endArrow=classic;html=1;rounded=0;exitX=0;exitY=0.5;exitDx=0;exitDy=0;entryX=1;entryY=0.5;entryDx=0;entryDy=0;entryPerimeter=0;" parent="1" source="CxYH6p24iFgYfsxDQxph-17" target="CxYH6p24iFgYfsxDQxph-28" edge="1">
          <mxGeometry x="-0.1388" y="-16" width="50" height="50" relative="1" as="geometry">
            <mxPoint x="320" y="400" as="sourcePoint" />
            <mxPoint x="370" y="350" as="targetPoint" />
            <mxPoint as="offset" />
          </mxGeometry>
        </mxCell>
        <mxCell id="CxYH6p24iFgYfsxDQxph-30" value="run_server_patch.php" style="rounded=1;whiteSpace=wrap;html=1;" parent="1" vertex="1">
          <mxGeometry x="530" y="420" width="130" height="20" as="geometry" />
        </mxCell>
        <mxCell id="CxYH6p24iFgYfsxDQxph-31" value="7. 에러가 없다면 서버패치 진행" style="endArrow=classic;html=1;rounded=0;entryX=0.464;entryY=-0.09;entryDx=0;entryDy=0;exitX=1;exitY=0.5;exitDx=0;exitDy=0;entryPerimeter=0;" parent="1" source="CxYH6p24iFgYfsxDQxph-17" target="CxYH6p24iFgYfsxDQxph-30" edge="1">
          <mxGeometry width="50" height="50" relative="1" as="geometry">
            <mxPoint x="410" y="570" as="sourcePoint" />
            <mxPoint x="460" y="520" as="targetPoint" />
          </mxGeometry>
        </mxCell>
        <mxCell id="CxYH6p24iFgYfsxDQxph-32" value="8.패치가 잘 진행됐다면 git에 서버 패치를 올림" style="endArrow=classic;html=1;rounded=0;exitX=0;exitY=0.5;exitDx=0;exitDy=0;" parent="1" source="CxYH6p24iFgYfsxDQxph-30" edge="1">
          <mxGeometry x="-0.0544" y="-4" width="50" height="50" relative="1" as="geometry">
            <mxPoint x="320" y="500" as="sourcePoint" />
            <mxPoint x="150" y="460" as="targetPoint" />
            <mxPoint as="offset" />
          </mxGeometry>
        </mxCell>
        <mxCell id="CxYH6p24iFgYfsxDQxph-35" value="cdn" style="shape=cylinder3;whiteSpace=wrap;html=1;boundedLbl=1;backgroundOutline=1;size=15;" parent="1" vertex="1">
          <mxGeometry x="130" y="295" width="60" height="80" as="geometry" />
        </mxCell>
        <mxCell id="CxYH6p24iFgYfsxDQxph-36" value="10. 변경된 클라 패치가 있다면&lt;br&gt;업로드 한다" style="endArrow=classic;html=1;rounded=0;entryX=1;entryY=0.5;entryDx=0;entryDy=0;exitX=0.5;exitY=1;exitDx=0;exitDy=0;entryPerimeter=0;" parent="1" target="CxYH6p24iFgYfsxDQxph-35" edge="1">
          <mxGeometry width="50" height="50" relative="1" as="geometry">
            <mxPoint x="320" y="385" as="sourcePoint" />
            <mxPoint x="320" y="585" as="targetPoint" />
          </mxGeometry>
        </mxCell>
        <mxCell id="Px6YXrKdvqHEFvbNOVaa-1" value="12. 패치 완료 메세지&lt;br&gt;전달" style="endArrow=classic;html=1;rounded=0;" edge="1" parent="1">
          <mxGeometry width="50" height="50" relative="1" as="geometry">
            <mxPoint x="370" y="360" as="sourcePoint" />
            <mxPoint x="170" y="200" as="targetPoint" />
          </mxGeometry>
        </mxCell>
        <mxCell id="Px6YXrKdvqHEFvbNOVaa-2" value="13. 패치 완료 메세지 받음" style="endArrow=classic;html=1;rounded=0;exitX=0.145;exitY=1;exitDx=0;exitDy=-4.35;exitPerimeter=0;" edge="1" parent="1" source="CxYH6p24iFgYfsxDQxph-4">
          <mxGeometry x="-0.1739" y="-29" width="50" height="50" relative="1" as="geometry">
            <mxPoint x="310" y="350" as="sourcePoint" />
            <mxPoint x="60" y="300" as="targetPoint" />
            <mxPoint as="offset" />
          </mxGeometry>
        </mxCell>
      </root>
    </mxGraphModel>
  </diagram>
</mxfile>
